<?xml version="1.0" encoding="UTF-8"?>
<!DOCTYPE svg PUBLIC "-//W3C//DTD SVG 1.0//EN" "http://www.w3.org/TR/2001/REC-SVG-20010904/DTD/svg10.dtd">
<svg width="1000" height="444" xmlns="http://www.w3.org/2000/svg">
    <rect style="fill:none;stroke-width:1;stroke:rgb(0,0,0);" width="1000" height="444"/>
    <g font-family="monospace" style="font-size:24;">
        <text>
            <tspan x="0" y="24" textLength="60">Lorem</tspan>
            <tspan x="79.6" y="24" textLength="60">ipsum</tspan>
            <tspan x="159.2" y="24" textLength="60">dolor</tspan>
            <tspan x="238.79999999999998" y="24" textLength="36">sit</tspan>
            <tspan x="294.4" y="24" textLength="60">amet,</tspan>
            <tspan x="374" y="24" textLength="132">consectetur</tspan>
            <tspan x="525.6" y="24" textLength="120">adipiscing</tspan>
            <tspan x="665.2" y="24" textLength="60">elit.</tspan>
            <tspan x="744.8000000000001" y="24" textLength="60">Nulla</tspan>
            <tspan x="824.4000000000001" y="24" textLength="108">dignissim</tspan>
            <tspan x="952.0000000000001" y="24" textLength="48">eros</tspan>
        </text>
        <text>
            <tspan x="0" y="48" textLength="60">nisi,</tspan>
            <tspan x="74.33333333333333" y="48" textLength="24">in</tspan>
            <tspan x="112.66666666666666" y="48" textLength="72">tempor</tspan>
            <tspan x="199" y="48" textLength="60">felis</tspan>
            <tspan x="273.3333333333333" y="48" textLength="120">vestibulum</tspan>
            <tspan x="407.66666666666663" y="48" textLength="36">eu.</tspan>
            <tspan x="457.99999999999994" y="48" textLength="84">Quisque</tspan>
            <tspan x="556.3333333333334" y="48" textLength="72">luctus</tspan>
            <tspan x="642.6666666666667" y="48" textLength="48">quis</tspan>
            <tspan x="705.0000000000001" y="48" textLength="60">risus</tspan>
            <tspan x="779.3333333333335" y="48" textLength="60">vitae</tspan>
            <tspan x="853.6666666666669" y="48" textLength="96">lacinia.</tspan>
            <tspan x="964.0000000000002" y="48" textLength="36">Sed</tspan>
        </text>
        <text>
            <tspan x="0" y="72" textLength="96">pharetra</tspan>
            <tspan x="114.4" y="72" textLength="60">magna</tspan>
            <tspan x="192.8" y="72" textLength="36">nec</tspan>
            <tspan x="247.20000000000002" y="72" textLength="72">mattis</tspan>
            <tspan x="337.6" y="72" textLength="132">vestibulum.</tspan>
            <tspan x="488" y="72" textLength="72">Nullam</tspan>
            <tspan x="578.4" y="72" textLength="36">sed</tspan>
            <tspan x="632.8" y="72" textLength="132">scelerisque</tspan>
            <tspan x="783.1999999999999" y="72" textLength="60">diam,</tspan>
            <tspan x="861.5999999999999" y="72" textLength="36">nec</tspan>
            <tspan x="915.9999999999999" y="72" textLength="84">egestas</tspan>
        </text>
        <text>
            <tspan x="0" y="96" textLength="72">dolor.</tspan>
            <tspan x="88.33333333333333" y="96" textLength="48">Nunc</tspan>
            <tspan x="152.66666666666666" y="96" textLength="24">ac</tspan>
            <tspan x="193" y="96" textLength="108">porttitor</tspan>
            <tspan x="317.3333333333333" y="96" textLength="72">ipsum,</tspan>
            <tspan x="405.66666666666663" y="96" textLength="24">eu</tspan>
            <tspan x="445.99999999999994" y="96" textLength="72">congue</tspan>
            <tspan x="534.3333333333334" y="96" textLength="60">diam.</tspan>
            <tspan x="610.6666666666667" y="96" textLength="72">Mauris</tspan>
            <tspan x="699.0000000000001" y="96" textLength="108">convallis</tspan>
            <tspan x="823.3333333333335" y="96" textLength="24">at</tspan>
            <tspan x="863.6666666666669" y="96" textLength="60">purus</tspan>
            <tspan x="940.0000000000002" y="96" textLength="60">vitae</tspan>
        </text>
        <text>
            <tspan x="0" y="120" textLength="96">iaculis.</tspan>
            <tspan x="110.8" y="120" textLength="108">Phasellus</tspan>
            <tspan x="233.60000000000002" y="120" textLength="96">pharetra</tspan>
            <tspan x="344.40000000000003" y="120" textLength="60">magna</tspan>
            <tspan x="419.20000000000005" y="120" textLength="24">ut</tspan>
            <tspan x="458.00000000000006" y="120" textLength="108">efficitur</tspan>
            <tspan x="580.8" y="120" textLength="96">posuere.</tspan>
            <tspan x="691.5999999999999" y="120" textLength="60">Morbi</tspan>
            <tspan x="766.3999999999999" y="120" textLength="12">a</tspan>
            <tspan x="793.1999999999998" y="120" textLength="108">ultricies</tspan>
            <tspan x="915.9999999999998" y="120" textLength="84">libero.</tspan>
        </text>
        <text>
            <tspan x="0" y="144" textLength="60">Etiam</tspan>
            <tspan x="74.54545454545455" y="144" textLength="108">ultricies</tspan>
            <tspan x="197.0909090909091" y="144" textLength="60">felis</tspan>
            <tspan x="271.6363636363637" y="144" textLength="36">non</tspan>
            <tspan x="322.18181818181824" y="144" textLength="60">lorem</tspan>
            <tspan x="396.7272727272728" y="144" textLength="84">mattis,</tspan>
            <tspan x="495.27272727272737" y="144" textLength="48">quis</tspan>
            <tspan x="557.8181818181819" y="144" textLength="108">facilisis</tspan>
            <tspan x="680.3636363636364" y="144" textLength="60">purus</tspan>
            <tspan x="754.9090909090909" y="144" textLength="84">dictum.</tspan>
            <tspan x="853.4545454545454" y="144" textLength="108">Curabitur</tspan>
            <tspan x="975.9999999999999" y="144" textLength="24">at</tspan>
        </text>
        <text>
            <tspan x="0" y="168" textLength="84">egestas</tspan>
            <tspan x="98.8" y="168" textLength="48">leo.</tspan>
            <tspan x="161.60000000000002" y="168" textLength="144">Pellentesque</tspan>
            <tspan x="320.40000000000003" y="168" textLength="96">habitant</tspan>
            <tspan x="431.20000000000005" y="168" textLength="60">morbi</tspan>
            <tspan x="506.00000000000006" y="168" textLength="108">tristique</tspan>
            <tspan x="628.8" y="168" textLength="96">senectus</tspan>
            <tspan x="739.5999999999999" y="168" textLength="24">et</tspan>
            <tspan x="778.3999999999999" y="168" textLength="60">netus</tspan>
            <tspan x="853.1999999999998" y="168" textLength="24">et</tspan>
            <tspan x="891.9999999999998" y="168" textLength="108">malesuada</tspan>
        </text>
        <text>
            <tspan x="0" y="192" textLength="60">fames</tspan>
            <tspan x="72" y="192" textLength="24">ac</tspan>
            <tspan x="108" y="192" textLength="72">turpis</tspan>
            <tspan x="192" y="192" textLength="96">egestas.</tspan>
            <tspan x="300" y="192" textLength="60">Etiam</tspan>
            <tspan x="372" y="192" textLength="108">consequat</tspan>
            <tspan x="492" y="192" textLength="72">sapien</tspan>
            <tspan x="576" y="192" textLength="36">sit</tspan>
            <tspan x="624" y="192" textLength="48">amet</tspan>
            <tspan x="684" y="192" textLength="48">nisl</tspan>
            <tspan x="744" y="192" textLength="84">maximus</tspan>
            <tspan x="840" y="192" textLength="96">lacinia.</tspan>
        </text>
    </g>
    <g font-family="monospace" style="font-size:24;">
        <text>
            <tspan x="50" y="240" textLength="36">Nam</tspan>
            <tspan x="98" y="240" textLength="96">pharetra</tspan>
            <tspan x="206" y="240" textLength="84">sodales</tspan>
            <tspan x="302" y="240" textLength="120">tristique.</tspan>
            <tspan x="434" y="240" textLength="36">Sed</tspan>
            <tspan x="482" y="240" textLength="36">sit</tspan>
            <tspan x="530" y="240" textLength="48">amet</tspan>
            <tspan x="590" y="240" textLength="36">leo</tspan>
            <tspan x="638" y="240" textLength="36">sit</tspan>
            <tspan x="686" y="240" textLength="48">amet</tspan>
            <tspan x="746" y="240" textLength="24">mi</tspan>
            <tspan x="782" y="240" textLength="72">auctor</tspan>
            <tspan x="866" y="240" textLength="84">mollis.</tspan>
        </text>
        <text>
            <tspan x="26" y="264" textLength="96">Praesent</tspan>
            <tspan x="134" y="264" textLength="84">iaculis</tspan>
            <tspan x="230" y="264" textLength="48">urna</tspan>
            <tspan x="290" y="264" textLength="60">ante,</tspan>
            <tspan x="362" y="264" textLength="48">eget</tspan>
            <tspan x="422" y="264" textLength="108">tincidunt</tspan>
            <tspan x="542" y="264" textLength="60">felis</tspan>
            <tspan x="614" y="264" textLength="84">commodo</tspan>
            <tspan x="710" y="264" textLength="48">nec.</tspan>
            <tspan x="770" y="264" textLength="108">Curabitur</tspan>
            <tspan x="890" y="264" textLength="84">dictum,</tspan>
        </text>
        <text>
            <tspan x="32" y="288" textLength="60">nulla</tspan>
            <tspan x="104" y="288" textLength="24">ut</tspan>
            <tspan x="140" y="288" textLength="84">aliquet</tspan>
            <tspan x="236" y="288" textLength="108">volutpat,</tspan>
            <tspan x="356" y="288" textLength="60">neque</tspan>
            <tspan x="428" y="288" textLength="72">sapien</tspan>
            <tspan x="512" y="288" textLength="84">aliquet</tspan>
            <tspan x="608" y="288" textLength="84">mauris,</tspan>
            <tspan x="704" y="288" textLength="36">non</tspan>
            <tspan x="752" y="288" textLength="72">cursus</tspan>
            <tspan x="836" y="288" textLength="48">elit</tspan>
            <tspan x="896" y="288" textLength="24">ex</tspan>
            <tspan x="932" y="288" textLength="36">non</tspan>
        </text>
        <text>
            <tspan x="38" y="312" textLength="84">tortor.</tspan>
            <tspan x="134" y="312" textLength="108">Phasellus</tspan>
            <tspan x="254" y="312" textLength="36">dui</tspan>
            <tspan x="302" y="312" textLength="60">odio,</tspan>
            <tspan x="374" y="312" textLength="84">dapibus</tspan>
            <tspan x="470" y="312" textLength="48">eget</tspan>
            <tspan x="530" y="312" textLength="48">odio</tspan>
            <tspan x="590" y="312" textLength="36">in,</tspan>
            <tspan x="638" y="312" textLength="84">dapibus</tspan>
            <tspan x="734" y="312" textLength="96">faucibus</tspan>
            <tspan x="842" y="312" textLength="72">lacus.</tspan>
            <tspan x="926" y="312" textLength="36">Sed</tspan>
        </text>
        <text>
            <tspan x="20" y="336" textLength="24">ac</tspan>
            <tspan x="56" y="336" textLength="96">ultrices</tspan>
            <tspan x="164" y="336" textLength="60">orci.</tspan>
            <tspan x="236" y="336" textLength="24">In</tspan>
            <tspan x="272" y="336" textLength="24">et</tspan>
            <tspan x="308" y="336" textLength="48">eros</tspan>
            <tspan x="368" y="336" textLength="48">quis</tspan>
            <tspan x="428" y="336" textLength="72">mauris</tspan>
            <tspan x="512" y="336" textLength="108">convallis</tspan>
            <tspan x="632" y="336" textLength="120">fringilla.</tspan>
            <tspan x="764" y="336" textLength="24">In</tspan>
            <tspan x="800" y="336" textLength="108">dignissim</tspan>
            <tspan x="920" y="336" textLength="60">porta</tspan>
        </text>
        <text>
            <tspan x="8" y="360" textLength="60">orci,</tspan>
            <tspan x="80" y="360" textLength="36">sit</tspan>
            <tspan x="128" y="360" textLength="48">amet</tspan>
            <tspan x="188" y="360" textLength="84">sodales</tspan>
            <tspan x="284" y="360" textLength="48">erat</tspan>
            <tspan x="344" y="360" textLength="84">maximus</tspan>
            <tspan x="440" y="360" textLength="36">eu.</tspan>
            <tspan x="488" y="360" textLength="48">Duis</tspan>
            <tspan x="548" y="360" textLength="108">fermentum</tspan>
            <tspan x="668" y="360" textLength="96">bibendum</tspan>
            <tspan x="776" y="360" textLength="60">augue</tspan>
            <tspan x="848" y="360" textLength="36">nec</tspan>
            <tspan x="896" y="360" textLength="96">feugiat.</tspan>
        </text>
        <text>
            <tspan x="20" y="384" textLength="60">Fusce</tspan>
            <tspan x="92" y="384" textLength="12">a</tspan>
            <tspan x="116" y="384" textLength="96">placerat</tspan>
            <tspan x="224" y="384" textLength="72">nulla.</tspan>
            <tspan x="308" y="384" textLength="84">Integer</tspan>
            <tspan x="404" y="384" textLength="48">eget</tspan>
            <tspan x="464" y="384" textLength="96">vehicula</tspan>
            <tspan x="572" y="384" textLength="60">ante.</tspan>
            <tspan x="644" y="384" textLength="84">Aliquam</tspan>
            <tspan x="740" y="384" textLength="96">suscipit</tspan>
            <tspan x="848" y="384" textLength="48">enim</tspan>
            <tspan x="908" y="384" textLength="72">purus,</tspan>
        </text>
        <text>
            <tspan x="14" y="408" textLength="60">vitae</tspan>
            <tspan x="86" y="408" textLength="72">mattis</tspan>
            <tspan x="170" y="408" textLength="72">lectus</tspan>
            <tspan x="254" y="408" textLength="72">cursus</tspan>
            <tspan x="338" y="408" textLength="48">sed.</tspan>
            <tspan x="398" y="408" textLength="24">Ut</tspan>
            <tspan x="434" y="408" textLength="72">auctor</tspan>
            <tspan x="518" y="408" textLength="36">est</tspan>
            <tspan x="566" y="408" textLength="36">nec</tspan>
            <tspan x="614" y="408" textLength="96">bibendum</tspan>
            <tspan x="722" y="408" textLength="96">posuere.</tspan>
            <tspan x="830" y="408" textLength="36">Nam</tspan>
            <tspan x="878" y="408" textLength="36">nec</tspan>
            <tspan x="926" y="408" textLength="60">purus</tspan>
        </text>
        <text>
            <tspan x="74" y="432" textLength="120">fermentum,</tspan>
            <tspan x="206" y="432" textLength="72">rutrum</tspan>
            <tspan x="290" y="432" textLength="60">risus</tspan>
            <tspan x="362" y="432" textLength="36">ut,</tspan>
            <tspan x="410" y="432" textLength="84">commodo</tspan>
            <tspan x="506" y="432" textLength="60">nisi.</tspan>
            <tspan x="578" y="432" textLength="36">Sed</tspan>
            <tspan x="626" y="432" textLength="72">mattis</tspan>
            <tspan x="710" y="432" textLength="108">elementum</tspan>
            <tspan x="830" y="432" textLength="96">feugiat.</tspan>
        </text>
    </g>
</svg>